<svg width="100" height="100" fill='#fff' xmlns="http://www.w3.org/2000/svg">

 <g>
  <title>background</title>
  <rect fill="none" id="canvas_background" height="402" width="582" y="-1" x="-1"/>
 </g>
 <g>
  <title>Layer 1</title>
  <path transform="rotate(-90 50.00000000000001,50.00091552734375) " id="svg_1" d="m30.729,57.915l17.824,21.414c0.438,0.524 0.951,0.715 1.447,0.681c0.496,0.034 1.011,-0.156 1.447,-0.681l17.824,-21.414c1.1,-1.319 0.461,-3.494 -1.446,-3.494l-7.479,0l0,-32.386c0,-1.116 -0.931,-2.047 -2.047,-2.047l-16.598,0c-1.116,0 -2.047,0.931 -2.047,2.047l0,32.386l-7.479,0c-1.907,0 -2.546,2.175 -1.446,3.494z"/>
  <path id="svg_2" d="m50,100c27.614,0 50,-22.386 50,-50s-22.386,-50 -50,-50s-50,22.386 -50,50s22.386,50 50,50zm0,-92c23.196,0 42,18.804 42,42s-18.804,42 -42,42s-42,-18.805 -42,-42c0,-23.196 18.805,-42 42,-42z"/>
 </g>
</svg>