<?xml version="1.0" standalone="no"?>
<!DOCTYPE svg PUBLIC "-//W3C//DTD SVG 20010904//EN"
 "http://www.w3.org/TR/2001/REC-SVG-20010904/DTD/svg10.dtd">
<svg version="1.0" xmlns="http://www.w3.org/2000/svg"
 width="256.000000pt" height="256.000000pt" viewBox="0 0 256.000000 256.000000"
 preserveAspectRatio="xMidYMid meet">

<g transform="translate(0.000000,256.000000) scale(0.100000,-0.100000)"
fill="#000000" stroke="none">
<path d="M985 2058 c-37 -13 -69 -36 -161 -110 l-71 -58 -37 15 c-56 23 -152
22 -209 -3 -25 -11 -127 -82 -225 -156 -98 -75 -184 -136 -190 -136 -6 0 -23
-5 -37 -12 -54 -24 -55 -34 -55 -461 0 -384 1 -395 21 -421 16 -21 29 -26 64
-26 40 0 45 -3 69 -44 35 -61 108 -122 168 -142 111 -37 248 1 324 90 l34 40
37 -44 c76 -88 212 -123 326 -84 59 20 138 90 162 143 l18 41 281 0 281 0 24
-45 c67 -126 225 -186 364 -139 56 19 129 81 163 140 l26 44 78 0 c73 0 80 2
99 26 20 26 21 38 21 335 l0 308 -91 213 c-51 117 -101 223 -111 235 -37 40
-65 44 -277 41 l-203 -3 -34 -37 c-33 -36 -34 -41 -34 -118 0 -59 -3 -80 -13
-80 -7 0 -145 98 -305 218 -174 130 -308 224 -331 230 -47 15 -135 14 -176 0z
m147 -70 c23 -7 134 -82 271 -186 128 -96 236 -178 241 -183 6 -5 -98 -9 -255
-9 l-265 0 -152 113 c-83 61 -151 115 -152 119 0 4 36 36 80 71 106 85 152 99
232 75z m-439 -157 c20 -10 96 -63 169 -117 l132 -99 -160 -5 c-87 -3 -165 -9
-171 -13 -7 -5 -13 -17 -13 -27 0 -10 6 -22 13 -27 6 -4 266 -10 577 -13 l565
-5 3 -297 2 -298 -301 0 -301 0 -41 45 c-22 25 -63 58 -91 73 -44 23 -63 27
-136 27 -76 0 -91 -3 -139 -30 -29 -16 -68 -47 -87 -69 l-34 -39 -42 45 c-83
88 -195 118 -313 84 -47 -14 -70 -29 -117 -77 -50 -49 -65 -59 -94 -59 l-34 0
0 300 0 300 219 0 c186 0 222 2 235 16 9 8 16 19 16 24 0 5 -7 16 -16 24 -13
13 -42 16 -161 16 l-145 0 143 109 c79 60 157 114 174 119 49 16 108 13 148
-7z m1337 -146 c0 -69 3 -86 17 -94 11 -6 24 -6 35 0 15 8 18 24 18 94 l0 85
93 0 c50 0 97 -4 103 -8 10 -6 164 -350 164 -366 0 -4 -80 -5 -177 -4 l-178 3
-5 40 c-5 37 -7 40 -35 40 -29 0 -30 -2 -33 -48 -4 -61 15 -93 65 -106 21 -6
116 -11 211 -11 l172 0 0 -44 0 -43 -50 -7 c-30 -4 -60 -16 -77 -30 -27 -23
-28 -29 -31 -125 l-4 -101 -49 44 c-65 58 -130 80 -219 74 -48 -4 -82 -13
-115 -32 -26 -14 -49 -26 -51 -26 -10 0 -3 713 6 731 9 16 22 19 75 19 l65 0
0 -85z m450 -650 l0 -105 -45 0 -45 0 0 93 c0 104 6 117 57 117 l33 0 0 -105z
m-1962 -54 c143 -74 165 -259 42 -363 -77 -66 -177 -73 -263 -18 -84 53 -120
150 -92 246 39 133 189 198 313 135z m489 14 c60 -18 126 -78 144 -132 19 -58
8 -154 -24 -201 -95 -144 -316 -125 -388 33 -40 87 -15 192 61 257 64 55 124
68 207 43z m1132 -1 c100 -29 173 -142 155 -241 -16 -91 -96 -173 -185 -188
-59 -10 -131 11 -179 53 -139 119 -90 328 90 383 39 11 62 10 119 -7z m-2017
-189 c-3 -36 -8 -45 -23 -45 -16 0 -19 7 -19 45 0 40 2 45 23 45 20 0 22 -4
19 -45z m1654 14 c-3 -17 -6 -38 -6 -45 0 -12 -47 -14 -264 -14 l-264 0 -4 45
-3 45 274 0 274 0 -7 -31z m704 -14 l0 -45 -54 0 -54 0 -4 45 -3 45 57 0 58 0
0 -45z"/>
<path d="M251 1386 c-8 -9 -11 -47 -9 -106 2 -74 6 -95 20 -103 12 -8 21 -7
32 2 20 17 23 190 4 209 -16 16 -33 15 -47 -2z"/>
<path d="M472 1388 c-8 -8 -12 -47 -12 -109 0 -90 2 -98 20 -104 40 -13 50 10
50 109 0 89 -8 116 -35 116 -6 0 -16 -5 -23 -12z"/>
<path d="M692 1388 c-8 -8 -12 -47 -12 -109 0 -90 2 -98 20 -104 40 -13 50 10
50 109 0 89 -8 116 -35 116 -6 0 -16 -5 -23 -12z"/>
<path d="M912 1388 c-8 -8 -12 -47 -12 -109 0 -90 2 -98 20 -104 40 -13 50 10
50 109 0 89 -8 116 -35 116 -6 0 -16 -5 -23 -12z"/>
<path d="M1131 1386 c-8 -9 -11 -47 -9 -106 2 -74 6 -95 20 -103 12 -8 21 -7
32 2 20 17 23 190 4 209 -16 16 -33 15 -47 -2z"/>
<path d="M1351 1386 c-8 -9 -11 -47 -9 -106 2 -74 6 -95 20 -103 12 -8 21 -7
32 2 20 17 23 190 4 209 -16 16 -33 15 -47 -2z"/>
<path d="M1571 1386 c-8 -9 -11 -47 -9 -106 2 -74 6 -95 20 -103 12 -8 21 -7
32 2 20 17 23 190 4 209 -16 16 -33 15 -47 -2z"/>
<path d="M2048 1209 c-21 -12 -23 -40 -6 -57 18 -18 133 -16 148 3 16 19 4 52
-23 59 -34 9 -100 6 -119 -5z"/>
<path d="M332 876 c-34 -32 -37 -38 -37 -91 0 -53 3 -59 37 -91 47 -43 106
-47 159 -11 103 69 49 227 -78 227 -35 0 -50 -6 -81 -34z m120 -53 c10 -9 18
-25 18 -36 0 -26 -28 -57 -52 -57 -22 0 -58 34 -58 55 0 20 36 55 57 55 9 0
25 -7 35 -17z"/>
<path d="M872 890 c-70 -43 -78 -136 -17 -197 28 -28 40 -33 83 -33 98 0 161
95 117 180 -36 69 -116 91 -183 50z m99 -60 c13 -7 19 -21 19 -45 0 -50 -50
-73 -84 -39 -21 20 -20 53 1 76 18 20 36 23 64 8z"/>
<path d="M1999 887 c-103 -69 -49 -227 78 -227 35 0 50 6 81 34 34 32 37 38
37 91 0 53 -3 59 -37 91 -47 43 -106 47 -159 11z m111 -67 c11 -11 20 -27 20
-35 0 -20 -36 -55 -57 -55 -23 0 -53 30 -53 53 0 26 28 57 52 57 10 0 27 -9
38 -20z"/>
</g>
</svg>
