<?xml version="1.0" encoding="utf-8"?>
<!-- Generator: Adobe Illustrator 17.1.0, SVG Export Plug-In . SVG Version: 6.00 Build 0)  -->
<!DOCTYPE svg PUBLIC "-//W3C//DTD SVG 1.1//EN" "http://www.w3.org/Graphics/SVG/1.1/DTD/svg11.dtd">
<svg version="1.1" id="cart" xmlns="http://www.w3.org/2000/svg" xmlns:xlink="http://www.w3.org/1999/xlink" x="0px" y="0px"
	 viewBox="0 0 1009.9996 923.5566" enable-background="new 0 0 1009.9996 923.5566" xml:space="preserve">
<g>
	<g id="cart-cart">
		<g>
			<path fill="#5C524C" d="M893.4653,560.4463H292.5796c-10.1411,0-18.3638-8.2129-18.3638-18.3623
				c0-10.1504,8.2227-18.3643,18.3638-18.3643h586.54l88.9844-356.0352H185.1421c-10.1411,0-18.3643-8.2231-18.3643-18.3642
				c0-10.1416,8.2232-18.3633,18.3643-18.3633h806.4892c5.667,0,10.9942,2.6094,14.4727,7.0654
				c3.4785,4.4561,4.7158,10.2671,3.3535,15.7549l-98.166,392.753C909.2466,554.707,901.895,560.4463,893.4653,560.4463
				L893.4653,560.4463z"/>
		</g>
		<g>
			<path fill="#5C524C" d="M873.2729,691.3584H310.4946c-8.4555,0-15.8076-5.7754-17.8345-13.9688L134.9385,36.7275H18.3642
				C8.2226,36.7275,0,28.5044,0,18.3633C0,8.2221,8.2226,0,18.3642,0h130.9654c8.4555,0,15.8081,5.7661,17.8345,13.9697
				l157.7221,640.662h548.3867c10.1504,0,18.3643,8.2129,18.3643,18.3623C891.6372,683.1445,883.4233,691.3584,873.2729,691.3584
				L873.2729,691.3584z"/>
		</g>
		<g>
			<path fill="#5C524C" d="M429.6601,923.5566c-49.621,0-89.9882-40.3672-89.9882-89.9883
				c0-49.6386,40.3672-90.0244,89.9882-90.0244c49.6304,0,90.0074,40.3858,90.0074,90.0244
				C519.6675,883.1894,479.2905,923.5566,429.6601,923.5566L429.6601,923.5566z M429.6601,780.2715
				c-29.3652,0-53.2607,23.9033-53.2607,53.2968c0,29.3741,23.8955,53.2618,53.2607,53.2618
				c29.3746,0,53.2798-23.8877,53.2798-53.2618C482.9399,804.1748,459.0347,780.2715,429.6601,780.2715L429.6601,780.2715z"/>
		</g>
		<g>
			<path fill="#5C524C" d="M792.1792,923.5566c-49.6026,0-89.9707-40.3672-89.9707-89.9883
				c0-49.6386,40.3681-90.0244,89.9707-90.0244c49.6396,0,90.0058,40.3858,90.0058,90.0244
				C882.185,883.1894,841.8188,923.5566,792.1792,923.5566L792.1792,923.5566z M792.1792,780.2715
				c-29.3574,0-53.2442,23.9033-53.2442,53.2968c0,29.3741,23.8868,53.2618,53.2442,53.2618
				c29.374,0,53.2793-23.8877,53.2793-53.2618C845.4585,804.1748,821.5532,780.2715,792.1792,780.2715L792.1792,780.2715z"/>
		</g>
		<g>
			<path fill="#5C524C" d="M913.0483,436.914H256.3184c-10.1411,0-18.3628-8.2216-18.3628-18.3628
				c0-10.1411,8.2216-18.3642,18.3628-18.3642h656.7299c10.1514,0,18.3643,8.2231,18.3643,18.3642
				C931.4126,428.6924,923.1997,436.914,913.0483,436.914L913.0483,436.914z"/>
		</g>
		<g>
			<path fill="#5C524C" d="M949.7768,301.6709H215.2339c-10.1416,0-18.3638-8.2217-18.3638-18.3633
				c0-10.1411,8.2222-18.3628,18.3638-18.3628h734.5429c10.1485,0,18.3623,8.2217,18.3623,18.3628
				C968.1391,293.4492,959.9253,301.6709,949.7768,301.6709L949.7768,301.6709z"/>
		</g>
	</g>
</g>
</svg>
